<mxfile host="app.diagrams.net" modified="2023-11-17T01:18:20.037Z" agent="Mozilla/5.0 (Windows NT 10.0; Win64; x64) AppleWebKit/537.36 (KHTML, like Gecko) Chrome/119.0.0.0 Safari/537.36" etag="_JaGSWzVGOgPaLPsj0Zk" version="22.1.2" type="device">
  <diagram name="Page-1" id="ZLKUc7PsYIp0icWCV2Fc">
    <mxGraphModel dx="1912" dy="1011" grid="1" gridSize="10" guides="1" tooltips="1" connect="1" arrows="1" fold="1" page="1" pageScale="1" pageWidth="850" pageHeight="1100" math="0" shadow="0">
      <root>
        <mxCell id="0" />
        <mxCell id="1" parent="0" />
        <mxCell id="ngzHdCn6t8bwOQN0Oea6-2" value="User.py" style="swimlane;fontStyle=1;align=center;verticalAlign=top;childLayout=stackLayout;horizontal=1;startSize=26;horizontalStack=0;resizeParent=1;resizeParentMax=0;resizeLast=0;collapsible=1;marginBottom=0;whiteSpace=wrap;html=1;" vertex="1" parent="1">
          <mxGeometry x="295" y="145" width="260" height="250" as="geometry" />
        </mxCell>
        <mxCell id="ngzHdCn6t8bwOQN0Oea6-3" value="- username: str&lt;br&gt;- name: str&lt;br&gt;- role: str&lt;br&gt;- readPermissions: list&lt;br&gt;- writePermissions: list" style="text;strokeColor=none;fillColor=none;align=left;verticalAlign=top;spacingLeft=4;spacingRight=4;overflow=hidden;rotatable=0;points=[[0,0.5],[1,0.5]];portConstraint=eastwest;whiteSpace=wrap;html=1;" vertex="1" parent="ngzHdCn6t8bwOQN0Oea6-2">
          <mxGeometry y="26" width="260" height="84" as="geometry" />
        </mxCell>
        <mxCell id="ngzHdCn6t8bwOQN0Oea6-4" value="" style="line;strokeWidth=1;fillColor=none;align=left;verticalAlign=middle;spacingTop=-1;spacingLeft=3;spacingRight=3;rotatable=0;labelPosition=right;points=[];portConstraint=eastwest;strokeColor=inherit;" vertex="1" parent="ngzHdCn6t8bwOQN0Oea6-2">
          <mxGeometry y="110" width="260" height="8" as="geometry" />
        </mxCell>
        <mxCell id="ngzHdCn6t8bwOQN0Oea6-5" value="+ User(username: str, name: str, role: str)&lt;br&gt;+ getUsername(): str&lt;br&gt;+ getName(): str&lt;br&gt;+ getRole(): str&lt;br&gt;+ setReadPermissions(permissions: str): None&lt;br&gt;+ setWritePermissions(permissions: str): None&lt;br&gt;+ getReadPermissions(): list&lt;br&gt;+ getWritePermissions(): list" style="text;strokeColor=none;fillColor=none;align=left;verticalAlign=top;spacingLeft=4;spacingRight=4;overflow=hidden;rotatable=0;points=[[0,0.5],[1,0.5]];portConstraint=eastwest;whiteSpace=wrap;html=1;" vertex="1" parent="ngzHdCn6t8bwOQN0Oea6-2">
          <mxGeometry y="118" width="260" height="132" as="geometry" />
        </mxCell>
        <mxCell id="ngzHdCn6t8bwOQN0Oea6-10" value="main.py" style="swimlane;fontStyle=1;align=center;verticalAlign=top;childLayout=stackLayout;horizontal=1;startSize=26;horizontalStack=0;resizeParent=1;resizeParentMax=0;resizeLast=0;collapsible=1;marginBottom=0;whiteSpace=wrap;html=1;" vertex="1" parent="1">
          <mxGeometry x="345" y="525" width="160" height="60" as="geometry" />
        </mxCell>
        <mxCell id="ngzHdCn6t8bwOQN0Oea6-12" value="" style="line;strokeWidth=1;fillColor=none;align=left;verticalAlign=middle;spacingTop=-1;spacingLeft=3;spacingRight=3;rotatable=0;labelPosition=right;points=[];portConstraint=eastwest;strokeColor=inherit;" vertex="1" parent="ngzHdCn6t8bwOQN0Oea6-10">
          <mxGeometry y="26" width="160" height="8" as="geometry" />
        </mxCell>
        <mxCell id="ngzHdCn6t8bwOQN0Oea6-13" value="+ main()" style="text;strokeColor=none;fillColor=none;align=left;verticalAlign=top;spacingLeft=4;spacingRight=4;overflow=hidden;rotatable=0;points=[[0,0.5],[1,0.5]];portConstraint=eastwest;whiteSpace=wrap;html=1;" vertex="1" parent="ngzHdCn6t8bwOQN0Oea6-10">
          <mxGeometry y="34" width="160" height="26" as="geometry" />
        </mxCell>
        <mxCell id="ngzHdCn6t8bwOQN0Oea6-14" value="ReferenceMonitor.py" style="swimlane;fontStyle=1;align=center;verticalAlign=top;childLayout=stackLayout;horizontal=1;startSize=26;horizontalStack=0;resizeParent=1;resizeParentMax=0;resizeLast=0;collapsible=1;marginBottom=0;whiteSpace=wrap;html=1;" vertex="1" parent="1">
          <mxGeometry x="300" y="715" width="250" height="110" as="geometry" />
        </mxCell>
        <mxCell id="ngzHdCn6t8bwOQN0Oea6-15" value="- permissions: dict" style="text;strokeColor=none;fillColor=none;align=left;verticalAlign=top;spacingLeft=4;spacingRight=4;overflow=hidden;rotatable=0;points=[[0,0.5],[1,0.5]];portConstraint=eastwest;whiteSpace=wrap;html=1;" vertex="1" parent="ngzHdCn6t8bwOQN0Oea6-14">
          <mxGeometry y="26" width="250" height="24" as="geometry" />
        </mxCell>
        <mxCell id="ngzHdCn6t8bwOQN0Oea6-16" value="" style="line;strokeWidth=1;fillColor=none;align=left;verticalAlign=middle;spacingTop=-1;spacingLeft=3;spacingRight=3;rotatable=0;labelPosition=right;points=[];portConstraint=eastwest;strokeColor=inherit;" vertex="1" parent="ngzHdCn6t8bwOQN0Oea6-14">
          <mxGeometry y="50" width="250" height="8" as="geometry" />
        </mxCell>
        <mxCell id="ngzHdCn6t8bwOQN0Oea6-17" value="+ ReferenceMontior()&lt;br&gt;+ assignReadPermissions(userRole: str): list&lt;br&gt;+ assignWritePermissions(userRole: str): list" style="text;strokeColor=none;fillColor=none;align=left;verticalAlign=top;spacingLeft=4;spacingRight=4;overflow=hidden;rotatable=0;points=[[0,0.5],[1,0.5]];portConstraint=eastwest;whiteSpace=wrap;html=1;" vertex="1" parent="ngzHdCn6t8bwOQN0Oea6-14">
          <mxGeometry y="58" width="250" height="52" as="geometry" />
        </mxCell>
        <mxCell id="ngzHdCn6t8bwOQN0Oea6-19" value="AccessControlMatrix.csv" style="html=1;whiteSpace=wrap;" vertex="1" parent="1">
          <mxGeometry x="345" y="905" width="160" height="50" as="geometry" />
        </mxCell>
        <mxCell id="ngzHdCn6t8bwOQN0Oea6-24" value="" style="html=1;verticalAlign=bottom;endArrow=open;dashed=1;endSize=8;curved=0;rounded=0;entryX=0.5;entryY=0;entryDx=0;entryDy=0;exitX=0.497;exitY=1.09;exitDx=0;exitDy=0;exitPerimeter=0;" edge="1" parent="1" source="ngzHdCn6t8bwOQN0Oea6-17" target="ngzHdCn6t8bwOQN0Oea6-19">
          <mxGeometry relative="1" as="geometry">
            <mxPoint x="470" y="855" as="sourcePoint" />
            <mxPoint x="155" y="841" as="targetPoint" />
          </mxGeometry>
        </mxCell>
        <mxCell id="ngzHdCn6t8bwOQN0Oea6-25" value="" style="endArrow=open;endFill=1;endSize=12;html=1;rounded=0;entryX=0.5;entryY=0;entryDx=0;entryDy=0;exitX=0.499;exitY=0.989;exitDx=0;exitDy=0;exitPerimeter=0;" edge="1" parent="1" source="ngzHdCn6t8bwOQN0Oea6-5" target="ngzHdCn6t8bwOQN0Oea6-10">
          <mxGeometry width="160" relative="1" as="geometry">
            <mxPoint x="425" y="400" as="sourcePoint" />
            <mxPoint x="590" y="420" as="targetPoint" />
          </mxGeometry>
        </mxCell>
        <mxCell id="ngzHdCn6t8bwOQN0Oea6-26" value="" style="endArrow=open;endFill=1;endSize=12;html=1;rounded=0;entryX=0.507;entryY=1.09;entryDx=0;entryDy=0;exitX=0.5;exitY=0;exitDx=0;exitDy=0;entryPerimeter=0;" edge="1" parent="1" source="ngzHdCn6t8bwOQN0Oea6-14" target="ngzHdCn6t8bwOQN0Oea6-13">
          <mxGeometry width="160" relative="1" as="geometry">
            <mxPoint x="435" y="404" as="sourcePoint" />
            <mxPoint x="435" y="535" as="targetPoint" />
          </mxGeometry>
        </mxCell>
        <mxCell id="ngzHdCn6t8bwOQN0Oea6-27" value="AccessControlMechanism" style="text;html=1;align=center;verticalAlign=middle;resizable=0;points=[];autosize=1;strokeColor=none;fillColor=none;fontStyle=1;fontSize=30;" vertex="1" parent="1">
          <mxGeometry x="225" y="50" width="400" height="50" as="geometry" />
        </mxCell>
      </root>
    </mxGraphModel>
  </diagram>
</mxfile>
